<svg width="19" height="16" viewBox="0 0 19 16" fill="none" xmlns="http://www.w3.org/2000/svg">
<path d="M11.6709 0.332033L18.4209 7.08203C18.5258 7.18655 18.609 7.31074 18.6658 7.44749C18.7226 7.58423 18.7518 7.73084 18.7518 7.87891C18.7518 8.02697 18.7226 8.17358 18.6658 8.31033C18.609 8.44708 18.5258 8.57127 18.4209 8.67578L11.6709 15.4258C11.4596 15.6371 11.1729 15.7559 10.8741 15.7559C10.5752 15.7559 10.2885 15.6371 10.0772 15.4258C9.86584 15.2144 9.74711 14.9278 9.74711 14.6289C9.74711 14.33 9.86584 14.0434 10.0772 13.832L14.9063 9.00297L1.125 9.00297C0.826632 9.00297 0.540483 8.88444 0.329505 8.67347C0.118527 8.46249 9.03849e-08 8.17634 9.39429e-08 7.87797C9.75009e-08 7.5796 0.118527 7.29345 0.329505 7.08248C0.540483 6.8715 0.826632 6.75297 1.125 6.75297L14.9063 6.75297L10.0763 1.92391C9.86491 1.71256 9.74617 1.42592 9.74617 1.12703C9.74617 0.828148 9.86491 0.541504 10.0763 0.330159C10.2876 0.118815 10.5742 8.02347e-05 10.8731 8.02383e-05C11.172 8.02419e-05 11.4587 0.118815 11.67 0.330159L11.6709 0.332033Z" fill="black"/>
</svg>
